<?xml version="1.0" encoding="utf-8"?>
<!-- Generator: Adobe Illustrator 26.4.1, SVG Export Plug-In . SVG Version: 6.00 Build 0)  -->
<svg version="1.1" id="Layer_1" xmlns="http://www.w3.org/2000/svg" xmlns:xlink="http://www.w3.org/1999/xlink" x="0px" y="0px"
	 viewBox="0 0 2048 2048" style="enable-background:new 0 0 2048 2048;" xml:space="preserve">
<style type="text/css">
	.st0{fill:#FFFFFF;}
	.st1{opacity:0.16;}
	.st2{opacity:0.16;fill:#FFFFFF;enable-background:new    ;}
	.st3{fill:#423F77;}
	.st4{fill:#A5A5A5;}
	.st5{clip-path:url(#SVGID_00000010290447290730613200000008346881362508084892_);fill:#FFC0FF;}
	.st6{clip-path:url(#SVGID_00000079452296694893464670000007318352711722444209_);fill:#8FEAD9;}
	.st7{font-family:'Silom';}
	.st8{font-size:220px;}
</style>
<g id="Layer_1_00000180362483614516396750000010011554837138685851_">
	<rect x="-5.4" class="st0" width="2048" height="2048"/>
</g>
<g id="手稿">
	<g class="st1">
		
			<image style="display:none;overflow:visible;enable-background:new    ;" width="1186" height="1228" xlink:href="队徽手稿.PNG"  transform="matrix(1.832 0 0 1.748 -97.1429 -58.5714)">
		</image>
	</g>
	<rect x="-5.4" class="st2" width="2048" height="1947.3"/>
	<path class="st3" d="M595.7,353.5v604.6c0,52.2,29.3,100,75.9,123.7l129,65.6c38.3,19.5,83.5,20.1,122.4,1.7l124.6-59
		c48.5-23,79.4-71.8,79.4-125.5V359.5c0-3.6-2.2-6.9-5.6-8.2L861.3,251"/>
	<path class="st0" d="M673,442.4v510.3c0,13.7,3.9,27.1,11.3,38.6l0,0c5.1,7.9,11.7,14.7,19.4,20.1l35.7,24.7
		c1.4,0.9,2.8,1.8,4.2,2.7l52.5,31.2c4.1,2.5,8.5,4.5,13.1,6.1l31.3,10.8c7.5,2.6,15.4,3.9,23.3,3.9h18.8c8.5,0,17-1.5,25-4.5
		l25.9-9.7c5.1-1.9,10-4.4,14.5-7.4l34.2-22.8c3.1-2.1,6-4.4,8.7-6.9l31.2-28.7c1.3-1.2,2.5-2.4,3.6-3.6l12.1-12.8
		c12.4-13.2,19.4-30.7,19.4-48.8V447c0-29.5-10.7-43.9-19.3-54.2l0,0c-6.7-8-34.8-28.7-43.8-32.4L893.8,319
		c-18.3-7.6-38.9-7.2-56.9,1.1L718,374.5c-7.1,3.2-13.6,7.6-19.3,13l-3.3,3.1C681.1,404.1,673,422.8,673,442.4z"/>
	<path class="st4" d="M966.9,330.9"/>
	<path class="st4" d="M877.7,281.5"/>
	<g>
		<g>
			<defs>
				<path id="SVGID_1_" d="M673,442.4v510.3c0,13.7,3.9,27.1,11.3,38.6l0,0c5.1,7.9,11.7,14.7,19.4,20.1l35.7,24.7
					c1.4,0.9,2.8,1.8,4.2,2.7l52.5,31.2c4.1,2.5,8.5,4.5,13.1,6.1l31.3,10.8c7.5,2.6,15.4,3.9,23.3,3.9h18.8c8.5,0,17-1.5,25-4.5
					l25.9-9.7c5.1-1.9,10-4.4,14.5-7.4l34.2-22.8c3.1-2.1,6-4.4,8.7-6.9l31.2-28.7c1.3-1.2,2.5-2.4,3.6-3.6l12.1-12.8
					c12.4-13.2,19.4-30.7,19.4-48.8V447c0-29.5-10.7-43.9-19.3-54.2l0,0c-6.7-8-34.8-28.7-43.8-32.4L893.8,319
					c-18.3-7.6-38.9-7.2-56.9,1.1L718,374.5c-7.1,3.2-13.6,7.6-19.3,13l-3.3,3.1C681.1,404.1,673,422.8,673,442.4z"/>
			</defs>
			<clipPath id="SVGID_00000033371173837326078260000011163948871568816263_">
				<use xlink:href="#SVGID_1_"  style="overflow:visible;"/>
			</clipPath>
			<path style="clip-path:url(#SVGID_00000033371173837326078260000011163948871568816263_);fill:#FFC0FF;" d="M626.9,378.4
				c-8.3,47.1,109.7,132.9,229.8,136.8c131.5,4.2,226.6-79.9,238.9-111c3.1-7.8,2.4-15.7,2.3-16.2c-2.8-28.3-42.6-55.8-64.6-47.5
				c-21.2,8-8.9,45.8-34.2,83.6c-28.5,42.6-87.4,59.4-133,57c-57.8-3.1-112.8-38.2-136.8-83.6c-14.6-27.7-12.5-49.4-30.4-57
				C675,330.2,631.4,352.6,626.9,378.4z"/>
		</g>
		<g>
			<defs>
				<path id="SVGID_00000013910762117982519540000017035279640708656039_" d="M673,442.4v510.3c0,13.7,3.9,27.1,11.3,38.6l0,0
					c5.1,7.9,11.7,14.7,19.4,20.1l35.7,24.7c1.4,0.9,2.8,1.8,4.2,2.7l52.5,31.2c4.1,2.5,8.5,4.5,13.1,6.1l31.3,10.8
					c7.5,2.6,15.4,3.9,23.3,3.9h18.8c8.5,0,17-1.5,25-4.5l25.9-9.7c5.1-1.9,10-4.4,14.5-7.4l34.2-22.8c3.1-2.1,6-4.4,8.7-6.9
					l31.2-28.7c1.3-1.2,2.5-2.4,3.6-3.6l12.1-12.8c12.4-13.2,19.4-30.7,19.4-48.8V447c0-29.5-10.7-43.9-19.3-54.2l0,0
					c-6.7-8-34.8-28.7-43.8-32.4L893.8,319c-18.3-7.6-38.9-7.2-56.9,1.1L718,374.5c-7.1,3.2-13.6,7.6-19.3,13l-3.3,3.1
					C681.1,404.1,673,422.8,673,442.4z"/>
			</defs>
			<clipPath id="SVGID_00000041290751328021502980000017308456762789291443_">
				<use xlink:href="#SVGID_00000013910762117982519540000017035279640708656039_"  style="overflow:visible;"/>
			</clipPath>
			<path style="clip-path:url(#SVGID_00000041290751328021502980000017308456762789291443_);fill:#8FEAD9;" d="M1115.1,365.1
				c-38.4-10.2-86.4,98.8-226,340c-31.4,54.3-76,130.1-104.5,239.3c-19.2,73.9-19.1,117.2,1.9,153.9c26.8,46.7,84.3,76.3,102.6,62.7
				c17.5-13.1-14.5-55.8-20.9-148.2c-4.4-63.8,5.9-113.4,15.2-157.7c6.8-32.7,19.7-92.1,53.2-159.6c36.7-73.9,128.4-218.2,186.1-264
				c5.2-4.1,21.4-16.4,20.9-32.3C1143.1,383.6,1126.7,368.2,1115.1,365.1z"/>
		</g>
	</g>
	<path class="st3" d="M823.1,1123c-9.3,1.7-54.6,10.8-104.2,49.9c-22.7,18-89.1,70.3-80.6,124.8c3.4,21.8,17.1,39.9,17.1,39.9
		c12.2,16.1,26.5,23.6,36.1,28.5c21.2,10.8,39.4,12.7,62.7,15.2c22.5,2.4,44.3,2.1,64.6,1.9c19.6-0.2,23.6-1,34.3,0.5
		c15,2,36.8,5,49.3,20.4c10,12.4,12.8,18.9,11.4,32.3c-3.4,32.3,99.8,38.6,103.1,5.7c2.9-29-10.3-62.6-25.2-79.8
		c-28.2-32.5-67.3-40.5-83.1-43.7c-18.7-3.8-17-0.3-82.2-3.6c-48.3-2.5-64.2-5.2-72.2-17.3c-7.9-12.1-4.1-27.5-1.9-36.1
		c12.5-49.7,72.2-74.5,76-76c27.9-11.1,35-14.9,70-27.6c24.6-8.9,21.6-17.1,19.3-25.6C913.5,1117.4,861.7,1115.8,823.1,1123z"/>
	<path class="st3" d="M656.9,1494.2c-26.8,14.3-98,52.5-107.4,126.4c-6.3,49.7,17.5,99.6,53.7,129.5
		c46.6,38.5,101.8,33.9,129.5,31.6c30.4-2.5,62.4-18.8,126.4-50.6c76.6-38,89.8-50.5,87.9-59.5c-1.4-7-3.3-25.7-0.8-39.9
		c6.6-36.2,7-33.9,17.6-54.9c8.2-16.2,14.2-25.9,15.4-27.8c0.1-0.2,0.3-0.5,0.5-0.7c4.5-6.2,8.3-9.7,12.9-16.4
		C1018,1495.9,798.2,1418.6,656.9,1494.2z"/>
	<path class="st0" d="M795.7,1492.4c-81.7,9.2-172.1,78.1-161.1,135.9c7,37,54,60.6,88.5,66.3c50.8,8.5,107.6-13.6,126.5-50.6
		c1.7-3.4,5.5-10.6,6.9-14.5c13.1-35.5,13.2-47.6,20.8-63.8c13.5-28.9,24.3-38.1,28.5-49.7C911.2,1500.8,850.2,1486.3,795.7,1492.4z
		"/>
	<path class="st3" d="M395,1439.6c2.3-5.2,7.4-8.6,13.1-8.5l505.6,5.3l103.1,5.7c-0.1,4.1-0.3,9.5-0.8,15.6
		c-0.6,6.7-2.1,18.1-5.8,31.7c-4.5,16.7-11,31-17.5,42.7c-170.6,0-341.2,0-511.8,0l0,0c-22.4,0-44-8.2-60.7-23.1l-2.5-2.2l-19-27.9
		c-2.1-3-6-9.7-6.9-19.2S393.5,1443,395,1439.6z"/>
	<path d="M550.4,1639.5"/>
	<path class="st3" d="M1773.3,1783.2c18.6,0,31.9-2.5,38.3-7.7c0.7-0.6,11.6-11.5,16.2-17.5c3.4-4.4,8.1-10.5,11.6-18.1l5.8-12.2
		c0.2-0.4,0.4-0.7,0.6-1.1c4.2-8.1,3.2-10.7-119.4-12.9h-707.2l0,0c-22.1,0-44.5,2.5-59-14.1c-2.8-2.9-11.6-12.7-13.2-28.1
		c0-0.2,0-0.4-0.1-0.5c-1.1-10.3-13.6-14.6-21-7.3c-12.9,12.9-25.5,24.2-38.6,38c-3.3,3.4-4.3,8.5-2.6,12.9l4.3,11.2
		c0.1,0.3,0.2,0.7,0.3,1c0.5,1.6,1.1,3.6,1.9,5.9c2.4,6.9,4.9,12,5.8,13.8c1,1.9,5.4,9.4,9.3,14.8c4.5,6,11.2,11.9,25.6,16.8
		c10.9,3.8,30.9,5,56.2,5c0,0,24.7,0,37.6,0h633.5"/>
	<path d="M948.9,1769.3"/>
	<path d="M994.7,1476"/>
</g>
<g id="ustc">
	<text transform="matrix(1 0 0 1 1242.1055 999.439)" class="st3 st7 st8">USTC</text>
	<text transform="matrix(1 0 0 1 1223.8468 1317.2596)" class="st3 st7 st8">Soft</text>
	<text transform="matrix(1 0 0 1 1223.8463 1558.7722)" class="st3 st7 st8">ware</text>
</g>
</svg>
